<svg width="30" height="30" viewBox="0 0 30 30" fill="none" xmlns="http://www.w3.org/2000/svg">
<path d="M27.3779 7.45021C26.4814 7.83693 25.5059 8.11525 24.501 8.22365C25.5443 7.60383 26.3256 6.62462 26.6982 5.46974C25.7192 6.05213 24.6467 6.46051 23.5283 6.67677C23.0609 6.17704 22.4955 5.77894 21.8675 5.50726C21.2395 5.23558 20.5622 5.09616 19.8779 5.09767C17.1094 5.09767 14.8828 7.34181 14.8828 10.0957C14.8828 10.4824 14.9297 10.8692 15.0059 11.2412C10.8604 11.0244 7.16309 9.04396 4.70508 6.01173C4.2572 6.77672 4.0225 7.64774 4.02539 8.53419C4.02539 10.2686 4.90723 11.7979 6.25195 12.6973C5.45949 12.6661 4.68557 12.4482 3.99316 12.0615V12.1231C3.99316 14.5518 5.70996 16.5645 7.99805 17.0274C7.56843 17.139 7.12649 17.196 6.68262 17.1973C6.35742 17.1973 6.0498 17.1651 5.73926 17.1211C6.37207 19.1016 8.21484 20.5401 10.4092 20.5869C8.69238 21.9317 6.54199 22.7227 4.20703 22.7227C3.78809 22.7227 3.40137 22.708 3 22.6611C5.21484 24.082 7.84277 24.9024 10.6729 24.9024C19.8604 24.9024 24.8877 17.291 24.8877 10.6846C24.8877 10.4678 24.8877 10.251 24.873 10.0342C25.8457 9.32228 26.6982 8.44044 27.3779 7.45021Z" fill="white"/>
</svg>
