<svg width="40" height="41" viewBox="0 0 40 41" fill="none" xmlns="http://www.w3.org/2000/svg">
<path d="M20.6883 1.68152C18.3865 1.68152 16.1779 2.09021 14.1291 2.83815L14.3992 3.11029C15.2152 3.93273 15.5796 5.10693 15.3739 6.25142L14.7578 9.6766C16.5326 8.74048 18.55 8.20998 20.6883 8.20998C27.7648 8.20998 33.522 14.0122 33.522 21.144C33.522 28.2758 27.7648 34.078 20.6883 34.078C13.6117 34.078 7.85457 28.2758 7.85457 21.144C7.85457 18.9891 8.38096 16.9559 9.30982 15.1672L5.91143 15.788C5.70389 15.8259 5.49291 15.8449 5.2835 15.8449C4.34306 15.8449 3.45894 15.4757 2.7941 14.8055L2.52429 14.5336C1.78224 16.5984 1.37671 18.8243 1.37671 21.144C1.37671 31.8757 10.0398 40.6066 20.6883 40.6066C31.3369 40.6066 40.0001 31.8757 40.0001 21.144C40.0001 10.4123 31.3368 1.68152 20.6883 1.68152Z" fill="white"/>
<path d="M20.6881 22.3266C20.3878 22.3266 20.0875 22.2111 19.8585 21.9803L17.1487 19.2493C16.8495 19.8149 16.6792 20.4597 16.6792 21.144C16.6792 23.3718 18.4776 25.1843 20.6881 25.1843C22.8987 25.1843 24.6971 23.3718 24.6971 21.144C24.6971 18.9162 22.8987 17.1038 20.6881 17.1038C20.0091 17.1038 19.3692 17.2754 18.8081 17.5769L21.5179 20.3079C21.9761 20.7696 21.9761 21.5184 21.5179 21.9803C21.2888 22.2111 20.9884 22.3266 20.6881 22.3266Z" fill="white"/>
<path d="M12.4933 14.5573C11.0599 16.3652 10.2014 18.6552 10.2014 21.144C10.2014 26.9717 14.9058 31.7129 20.6883 31.7129C26.4708 31.7129 31.1753 26.9717 31.1753 21.144C31.1753 15.3163 26.4708 10.5751 20.6883 10.5751C18.2189 10.5751 15.9465 11.4403 14.1527 12.8849L17.1032 15.8585C18.1244 15.1526 19.3591 14.7386 20.6883 14.7386C24.1929 14.7386 27.0441 17.612 27.0441 21.144C27.0441 24.676 24.1929 27.5494 20.6883 27.5494C17.1837 27.5494 14.3326 24.676 14.3326 21.144C14.3326 19.8044 14.7434 18.5601 15.4438 17.5308L12.4933 14.5573Z" fill="white"/>
<path d="M13.0646 5.82982C13.1332 5.44825 13.0118 5.05691 12.7397 4.78271L8.62972 0.64064C8.3474 0.355961 7.94063 0.235656 7.55043 0.321273C7.16023 0.406889 6.83997 0.68668 6.7005 1.06383L5.53906 4.20429L12.1572 10.874L13.0646 5.82982Z" fill="white"/>
<path d="M5.28344 13.4799C5.35298 13.4799 5.42299 13.4736 5.49277 13.4609L10.4979 12.5464L3.87974 5.87646L0.763659 7.04699C0.389423 7.18756 0.111797 7.51033 0.0268429 7.90357C-0.058033 8.29682 0.0612625 8.70671 0.343739 8.99132L4.45369 13.1334C4.67569 13.3573 4.97499 13.4799 5.28344 13.4799Z" fill="white"/>
</svg>
