<svg width="60" height="60" viewBox="0 0 60 60" fill="none" xmlns="http://www.w3.org/2000/svg">
<circle cx="30" cy="30" r="29.5" fill="#00A39A" stroke="white"/>
<path d="M36.1719 41H21.2012V37.8506L26.5771 32.416C28.1689 30.7852 29.209 29.6572 29.6973 29.0322C30.1855 28.3975 30.5371 27.8115 30.752 27.2744C30.9668 26.7373 31.0742 26.1807 31.0742 25.6045C31.0742 24.7451 30.835 24.1055 30.3564 23.6855C29.8877 23.2656 29.2578 23.0557 28.4668 23.0557C27.6367 23.0557 26.8311 23.2461 26.0498 23.627C25.2686 24.0078 24.4531 24.5498 23.6035 25.2529L21.1426 22.3379C22.1973 21.4395 23.0713 20.8047 23.7646 20.4336C24.458 20.0625 25.2148 19.7793 26.0352 19.584C26.8555 19.3789 27.7734 19.2764 28.7891 19.2764C30.127 19.2764 31.3086 19.5205 32.334 20.0088C33.3594 20.4971 34.1553 21.1807 34.7217 22.0596C35.2881 22.9385 35.5713 23.9443 35.5713 25.0771C35.5713 26.0635 35.3955 26.9912 35.0439 27.8604C34.7021 28.7197 34.165 29.6035 33.4326 30.5117C32.71 31.4199 31.4307 32.7139 29.5947 34.3936L26.8408 36.9863V37.1914H36.1719V41Z" fill="white"/>
</svg>
