<svg width="40" height="40" viewBox="0 0 40 40" fill="none" xmlns="http://www.w3.org/2000/svg">
<g clip-path="url(#clip0)">
<path d="M15.7142 6.42857C15.7142 6.82303 15.3944 7.14286 14.9999 7.14286C13.0283 7.1453 11.4309 8.74268 11.4285 10.7143V11.4286H28.5713V10.7143C28.5689 8.74268 26.9715 7.1453 24.9999 7.14286C24.6054 7.14286 24.2856 6.82303 24.2856 6.42857V2.14286C24.2856 0.959473 23.3261 0 22.1428 0H17.857C16.6737 0 15.7142 0.959473 15.7142 2.14286V6.42857ZM19.9999 1.42857C21.1833 1.42857 22.1428 2.38804 22.1428 3.57143C22.1428 4.75481 21.1833 5.71429 19.9999 5.71429C18.8165 5.71429 17.857 4.75481 17.857 3.57143C17.857 2.38804 18.8165 1.42857 19.9999 1.42857Z" fill="white"/>
<path d="M35 7.8572C34.9976 5.88559 33.4002 4.28821 31.4286 4.28577H25.7143V5.76491C27.6413 6.04742 29.2303 7.42018 29.7893 9.28577H32.1429C32.9318 9.28577 33.5714 9.92542 33.5714 10.7143V37.1429C33.5714 37.9318 32.9318 38.5715 32.1429 38.5715H7.85714C7.06822 38.5715 6.42857 37.9318 6.42857 37.1429V10.7143C6.42857 9.92542 7.06822 9.28577 7.85714 9.28577H10.2141C10.7729 7.42123 12.3601 6.04881 14.2857 5.76491V4.28577H8.57143C6.59982 4.28821 5.00244 5.88559 5 7.8572V36.4286C5.00244 38.4002 6.59982 39.9976 8.57143 40.0001H31.4286C33.4002 39.9976 34.9976 38.4002 35 36.4286V7.8572Z" fill="white"/>
<path d="M29.2856 17.8572C29.2856 18.6461 28.646 19.2857 27.857 19.2857C27.0681 19.2857 26.4285 18.6461 26.4285 17.8572C26.4285 17.0682 27.0681 16.4286 27.857 16.4286C28.646 16.4286 29.2856 17.0682 29.2856 17.8572Z" fill="white"/>
<path d="M20.7142 3.57146C20.7142 3.96592 20.3944 4.28575 19.9999 4.28575C19.6055 4.28575 19.2856 3.96592 19.2856 3.57146C19.2856 3.177 19.6055 2.85718 19.9999 2.85718C20.3944 2.85718 20.7142 3.177 20.7142 3.57146Z" fill="white"/>
<path d="M7.85718 10.7142V37.1428H32.1429V10.7142H30V12.1428C30 12.5373 29.6802 12.8571 29.2857 12.8571H10.7143C10.3199 12.8571 10 12.5373 10 12.1428V10.7142H7.85718ZM24.8773 31.7243L23.8672 32.7343L22.8572 31.7243L21.8471 32.7343L20.8371 31.7243L21.8471 30.7142L20.8371 29.7042L21.8471 28.6941L22.8572 29.7042L23.8672 28.6941L24.8773 29.7042L23.8672 30.7142L24.8773 31.7243ZM12.9799 18.9899L13.99 17.9799L15 18.9899L16.0101 17.9799L17.0201 18.9899L16.0101 19.9999L17.0201 21.01L16.0101 22.02L15 21.01L13.99 22.02L12.9799 21.01L13.99 19.9999L12.9799 18.9899ZM11.4286 29.3872V29.2857C11.4317 26.5255 13.6684 24.2888 16.4286 24.2857H23.5715C25.5431 24.2832 27.1404 22.6858 27.1429 20.7142V20.6127C25.7499 20.2532 24.8413 18.9135 25.0227 17.4863C25.2041 16.0592 26.4185 14.9891 27.8572 14.9891C29.2959 14.9891 30.5103 16.0592 30.6916 17.4863C30.873 18.9135 29.9645 20.2532 28.5715 20.6127V20.7142C28.568 23.4741 26.3313 25.7107 23.5715 25.7142H16.4286C14.457 25.7167 12.8596 27.3141 12.8572 29.2857V29.3872C14.2502 29.7467 15.1587 31.0864 14.9774 32.5135C14.796 33.9407 13.5816 35.0108 12.1429 35.0108C10.7042 35.0108 9.48978 33.9407 9.30842 32.5135C9.12706 31.0864 10.0356 29.7467 11.4286 29.3872Z" fill="white"/>
<path d="M13.5715 32.1428C13.5715 32.9317 12.9319 33.5714 12.1429 33.5714C11.354 33.5714 10.7144 32.9317 10.7144 32.1428C10.7144 31.3539 11.354 30.7142 12.1429 30.7142C12.9319 30.7142 13.5715 31.3539 13.5715 32.1428Z" fill="white"/>
</g>
<defs>
<clipPath id="clip0">
<rect width="40" height="40" fill="white"/>
</clipPath>
</defs>
</svg>
