<svg width="40" height="40" viewBox="0 0 40 40" fill="none" xmlns="http://www.w3.org/2000/svg">
<path d="M16.2162 32.766H1.6216C1.47823 32.766 1.34075 32.709 1.23938 32.6076C1.138 32.5063 1.08105 32.3688 1.08105 32.2254V9.52272C1.08105 9.37936 1.138 9.24187 1.23938 9.1405C1.34075 9.03913 1.47823 8.98218 1.6216 8.98218H4.86484C5.0082 8.98218 5.14569 9.03913 5.24706 9.1405C5.34843 9.24187 5.40538 9.37936 5.40538 9.52272C5.40538 9.66608 5.34843 9.80357 5.24706 9.90494C5.14569 10.0063 5.0082 10.0633 4.86484 10.0633H2.16214V31.6849H16.2162C16.3596 31.6849 16.497 31.7418 16.5984 31.8432C16.6998 31.9446 16.7567 32.0821 16.7567 32.2254C16.7567 32.3688 16.6998 32.5063 16.5984 32.6076C16.497 32.709 16.3596 32.766 16.2162 32.766Z" fill="white"/>
<path d="M38.3784 19.173C38.2351 19.173 38.0976 19.116 37.9962 19.0146C37.8948 18.9133 37.8379 18.7758 37.8379 18.6324V17.0595C37.8379 16.9161 37.8948 16.7786 37.9962 16.6772C38.0976 16.5759 38.2351 16.5189 38.3784 16.5189C38.5218 16.5189 38.6593 16.5759 38.7607 16.6772C38.862 16.7786 38.919 16.9161 38.919 17.0595V18.6324C38.919 18.7758 38.862 18.9133 38.7607 19.0146C38.6593 19.116 38.5218 19.173 38.3784 19.173Z" fill="white"/>
<path d="M38.3785 32.7676H23.7839C23.6406 32.7676 23.5031 32.7106 23.4017 32.6093C23.3004 32.5079 23.2434 32.3704 23.2434 32.2271C23.2434 32.0837 23.3004 31.9462 23.4017 31.8448C23.5031 31.7435 23.6406 31.6865 23.7839 31.6865H37.838V27.8054C37.838 27.6621 37.895 27.5246 37.9963 27.4232C38.0977 27.3218 38.2352 27.2649 38.3785 27.2649C38.5219 27.2649 38.6594 27.3218 38.7608 27.4232C38.8621 27.5246 38.9191 27.6621 38.9191 27.8054V32.2271C38.9191 32.3704 38.8621 32.5079 38.7608 32.6093C38.6594 32.7106 38.5219 32.7676 38.3785 32.7676Z" fill="white"/>
<path d="M38.3784 24.5621C38.2351 24.5621 38.0976 24.5051 37.9962 24.4038C37.8948 24.3024 37.8379 24.1649 37.8379 24.0215V22.4161C37.8379 22.2728 37.8948 22.1353 37.9962 22.0339C38.0976 21.9326 38.2351 21.8756 38.3784 21.8756C38.5218 21.8756 38.6593 21.9326 38.7607 22.0339C38.862 22.1353 38.919 22.2728 38.919 22.4161V24.0215C38.919 24.1649 38.862 24.3024 38.7607 24.4038C38.6593 24.5051 38.5218 24.5621 38.3784 24.5621Z" fill="white"/>
<path d="M38.3785 13.8162C38.2352 13.8162 38.0977 13.7592 37.9963 13.6579C37.8949 13.5565 37.838 13.419 37.838 13.2756V10.0648H35.1353C34.9919 10.0648 34.8544 10.0079 34.753 9.90652C34.6517 9.80515 34.5947 9.66766 34.5947 9.5243C34.5947 9.38094 34.6517 9.24346 34.753 9.14208C34.8544 9.04071 34.9919 8.98376 35.1353 8.98376H38.3785C38.5219 8.98376 38.6594 9.04071 38.7607 9.14208C38.8621 9.24346 38.9191 9.38094 38.9191 9.5243V13.2756C38.9191 13.419 38.8621 13.5565 38.7607 13.6579C38.6594 13.7592 38.5219 13.8162 38.3785 13.8162Z" fill="white"/>
<path d="M35.1351 29.5227C35.0619 29.5226 34.9895 29.5077 34.9222 29.4789C32.6082 28.4448 30.1021 27.9103 27.5676 27.9103C25.033 27.9103 22.527 28.4448 20.213 29.4789C20.1308 29.5141 20.0411 29.5284 19.952 29.5205C19.8629 29.5125 19.7772 29.4826 19.7025 29.4334C19.6278 29.3841 19.5665 29.3171 19.5241 29.2384C19.4817 29.1596 19.4595 29.0716 19.4595 28.9821V5.73887C19.4595 5.63852 19.4875 5.54015 19.5403 5.45481C19.5931 5.36946 19.6686 5.30049 19.7584 5.25563C24.8973 2.68752 30.1503 2.68698 35.3735 5.25563C35.4644 5.30028 35.5409 5.36956 35.5943 5.45557C35.6477 5.54158 35.6759 5.64087 35.6757 5.74212V28.9854C35.6757 29.1287 35.6187 29.2662 35.5174 29.3676C35.416 29.469 35.2785 29.5259 35.1351 29.5259V29.5227ZM27.5676 26.8259C29.9735 26.8364 32.3564 27.2946 34.5946 28.1773V6.07887C32.4135 4.98595 30.0075 4.41665 27.5679 4.41618C25.1283 4.41571 22.7221 4.98409 20.5406 6.07617V28.1783C22.7787 27.2954 25.1616 26.8367 27.5676 26.8259Z" fill="white"/>
<path d="M19.9999 29.5227C19.9267 29.5227 19.8542 29.5078 19.7869 29.4789C17.4729 28.4448 14.9669 27.9104 12.4323 27.9104C9.89779 27.9104 7.39174 28.4448 5.07773 29.4789C4.99552 29.5141 4.90585 29.5284 4.81675 29.5205C4.72765 29.5126 4.64192 29.4826 4.56724 29.4334C4.49256 29.3842 4.43127 29.3172 4.38885 29.2384C4.34644 29.1596 4.32423 29.0716 4.32422 28.9822V5.73891C4.32397 5.63765 4.35216 5.53837 4.40558 5.45236C4.459 5.36635 4.53551 5.29707 4.62638 5.25242C9.84855 2.68539 15.1015 2.68539 20.2415 5.25242C20.3313 5.29728 20.4068 5.36625 20.4596 5.45159C20.5124 5.53694 20.5404 5.6353 20.5404 5.73566V28.9789C20.5404 29.1223 20.4835 29.2598 20.3821 29.3611C20.2807 29.4625 20.1433 29.5194 19.9999 29.5194V29.5227ZM12.4323 26.8259C14.8382 26.8364 17.2212 27.2947 19.4594 28.1773V6.0762C17.2778 4.98412 14.8716 4.41574 12.432 4.41621C9.99237 4.41668 7.58644 4.98598 5.4053 6.07891V28.1784C7.64342 27.2954 10.0264 26.8368 12.4323 26.8259Z" fill="white"/>
<path d="M19.9999 36.6767C18.8534 36.6754 17.7542 36.2194 16.9435 35.4087C16.1328 34.598 15.6768 33.4989 15.6755 32.3524V32.2254C15.6755 32.082 15.7325 31.9445 15.8339 31.8431C15.9352 31.7418 16.0727 31.6848 16.2161 31.6848C16.3594 31.6848 16.4969 31.7418 16.5983 31.8431C16.6997 31.9445 16.7566 32.082 16.7566 32.2254V32.3524C16.7566 33.2125 17.0983 34.0375 17.7065 34.6457C18.3148 35.2539 19.1397 35.5956 19.9999 35.5956C20.86 35.5956 21.685 35.2539 22.2932 34.6457C22.9014 34.0375 23.2431 33.2125 23.2431 32.3524V32.2254C23.2431 32.082 23.3001 31.9445 23.4014 31.8431C23.5028 31.7418 23.6403 31.6848 23.7837 31.6848C23.927 31.6848 24.0645 31.7418 24.1659 31.8431C24.2672 31.9445 24.3242 32.082 24.3242 32.2254V32.3524C24.3229 33.4989 23.8669 34.598 23.0562 35.4087C22.2455 36.2194 21.1464 36.6754 19.9999 36.6767Z" fill="white"/>
<path d="M31.8919 10.5334C31.8238 10.5333 31.7564 10.5205 31.693 10.4956C29.0494 9.41238 26.0858 9.41238 23.4422 10.4956C23.3762 10.5217 23.3057 10.5346 23.2347 10.5335C23.1637 10.5323 23.0936 10.5172 23.0285 10.489C22.9633 10.4608 22.9043 10.42 22.855 10.369C22.8056 10.3181 22.7667 10.2578 22.7406 10.1918C22.7144 10.1258 22.7016 10.0553 22.7027 9.98429C22.7038 9.91331 22.7189 9.84324 22.7471 9.77809C22.7754 9.71293 22.8161 9.65398 22.8671 9.60458C22.9181 9.55518 22.9783 9.51631 23.0443 9.49019C25.9428 8.3021 29.1924 8.3021 32.0908 9.49019C32.2079 9.53644 32.3051 9.62207 32.3657 9.73232C32.4264 9.84257 32.4467 9.97053 32.4231 10.0941C32.3996 10.2177 32.3336 10.3293 32.2366 10.4094C32.1397 10.4896 32.0178 10.5335 31.8919 10.5334Z" fill="white"/>
<path d="M31.8917 14.7455C31.8236 14.7454 31.7561 14.7324 31.6928 14.7071C29.0492 13.6239 26.0856 13.6239 23.442 14.7071C23.3756 14.7353 23.3043 14.7499 23.2322 14.7501C23.1601 14.7503 23.0887 14.7361 23.0222 14.7082C22.9556 14.6804 22.8954 14.6396 22.8449 14.5881C22.7944 14.5366 22.7547 14.4756 22.7281 14.4085C22.7016 14.3415 22.6887 14.2698 22.6903 14.1977C22.6919 14.1256 22.7079 14.0546 22.7373 13.9888C22.7668 13.923 22.8091 13.8637 22.8618 13.8145C22.9145 13.7653 22.9765 13.7271 23.0442 13.7022C25.9426 12.5141 29.1922 12.5141 32.0907 13.7022C32.2077 13.7485 32.3049 13.8341 32.3656 13.9444C32.4262 14.0546 32.4465 14.1826 32.4229 14.3062C32.3994 14.4298 32.3334 14.5413 32.2365 14.6215C32.1395 14.7017 32.0176 14.7455 31.8917 14.7455Z" fill="white"/>
<path d="M31.8917 18.9572C31.8236 18.9571 31.7561 18.9441 31.6928 18.9188C29.0493 17.835 26.0855 17.835 23.442 18.9188C23.3756 18.947 23.3043 18.9616 23.2322 18.9618C23.1601 18.962 23.0887 18.9478 23.0222 18.92C22.9556 18.8922 22.8954 18.8513 22.8449 18.7998C22.7944 18.7484 22.7547 18.6873 22.7281 18.6203C22.7016 18.5532 22.6887 18.4816 22.6903 18.4095C22.6919 18.3374 22.7079 18.2663 22.7373 18.2005C22.7668 18.1347 22.8091 18.0755 22.8618 18.0262C22.9145 17.977 22.9765 17.9389 23.0442 17.914C25.9425 16.7253 29.1923 16.7253 32.0907 17.914C32.2077 17.9602 32.3049 18.0459 32.3656 18.1561C32.4262 18.2663 32.4465 18.3943 32.4229 18.5179C32.3994 18.6415 32.3334 18.753 32.2365 18.8332C32.1395 18.9134 32.0176 18.9573 31.8917 18.9572Z" fill="white"/>
<path d="M31.8919 23.1686C31.8238 23.1684 31.7564 23.1556 31.693 23.1307C29.0494 22.0475 26.0858 22.0475 23.4422 23.1307C23.3089 23.1835 23.16 23.1811 23.0285 23.1242C22.8969 23.0672 22.7933 22.9603 22.7406 22.8269C22.6878 22.6936 22.6902 22.5448 22.7471 22.4132C22.8041 22.2816 22.911 22.1781 23.0443 22.1253C25.9428 20.9372 29.1924 20.9372 32.0908 22.1253C32.2079 22.1716 32.3051 22.2572 32.3657 22.3675C32.4264 22.4777 32.4467 22.6057 32.4231 22.7293C32.3996 22.8529 32.3336 22.9644 32.2366 23.0446C32.1397 23.1248 32.0178 23.1686 31.8919 23.1686Z" fill="white"/>
<path d="M16.7567 10.5334C16.6886 10.5333 16.6211 10.5205 16.5577 10.4956C13.9141 9.41238 10.9505 9.41238 8.30693 10.4956C8.24091 10.5217 8.1704 10.5346 8.09941 10.5335C8.02842 10.5323 7.95835 10.5172 7.8932 10.489C7.76162 10.432 7.65806 10.3251 7.60531 10.1918C7.57919 10.1258 7.56632 10.0553 7.56745 9.98429C7.56858 9.91331 7.58368 9.84324 7.61189 9.77809C7.66886 9.64651 7.77577 9.54295 7.90909 9.49019C10.8076 8.3021 14.0571 8.3021 16.9556 9.49019C17.0726 9.53644 17.1698 9.62207 17.2305 9.73232C17.2911 9.84257 17.3114 9.97053 17.2879 10.0941C17.2643 10.2177 17.1983 10.3293 17.1014 10.4094C17.0044 10.4896 16.8825 10.5335 16.7567 10.5334Z" fill="white"/>
<path d="M16.7567 14.7455C16.6886 14.7454 16.6211 14.7324 16.5578 14.7071C13.9142 13.6239 10.9506 13.6239 8.30701 14.7071C8.24064 14.7353 8.1693 14.7499 8.0972 14.7501C8.02509 14.7503 7.95368 14.7361 7.88716 14.7082C7.82063 14.6804 7.76035 14.6396 7.70986 14.5881C7.65936 14.5366 7.61967 14.4756 7.59313 14.4085C7.56659 14.3415 7.55373 14.2698 7.55531 14.1977C7.55688 14.1256 7.57287 14.0546 7.60232 13.9888C7.63176 13.923 7.67408 13.8637 7.72678 13.8145C7.77948 13.7653 7.84149 13.7271 7.90917 13.7022C10.8076 12.5141 14.0572 12.5141 16.9557 13.7022C17.0727 13.7485 17.1699 13.8341 17.2306 13.9444C17.2912 14.0546 17.3115 14.1826 17.288 14.3062C17.2644 14.4298 17.1984 14.5413 17.1015 14.6215C17.0045 14.7017 16.8826 14.7455 16.7567 14.7455Z" fill="white"/>
<path d="M16.7567 18.9572C16.6886 18.9571 16.6211 18.9441 16.5578 18.9188C13.9143 17.835 10.9505 17.835 8.30701 18.9188C8.24064 18.947 8.1693 18.9616 8.0972 18.9618C8.02509 18.962 7.95368 18.9478 7.88716 18.92C7.82063 18.8922 7.76035 18.8513 7.70986 18.7998C7.65936 18.7484 7.61967 18.6873 7.59313 18.6203C7.56659 18.5532 7.55373 18.4816 7.55531 18.4095C7.55688 18.3374 7.57287 18.2663 7.60232 18.2005C7.63176 18.1347 7.67408 18.0755 7.72678 18.0262C7.77948 17.977 7.84149 17.9389 7.90917 17.914C10.8075 16.7253 14.0573 16.7253 16.9557 17.914C17.0727 17.9602 17.1699 18.0459 17.2306 18.1561C17.2912 18.2663 17.3115 18.3943 17.288 18.5179C17.2644 18.6415 17.1984 18.753 17.1015 18.8332C17.0045 18.9134 16.8826 18.9573 16.7567 18.9572Z" fill="white"/>
<path d="M16.7567 23.1686C16.6886 23.1684 16.6211 23.1556 16.5577 23.1307C13.9141 22.0475 10.9505 22.0475 8.30693 23.1307C8.24091 23.1569 8.1704 23.1697 8.09941 23.1686C8.02842 23.1675 7.95835 23.1524 7.8932 23.1241C7.82805 23.0959 7.76909 23.0552 7.7197 23.0042C7.6703 22.9532 7.63143 22.893 7.60531 22.8269C7.57919 22.7609 7.56632 22.6904 7.56745 22.6194C7.56858 22.5484 7.58368 22.4784 7.61189 22.4132C7.6401 22.3481 7.68086 22.2891 7.73186 22.2397C7.78285 22.1903 7.84308 22.1514 7.90909 22.1253C10.8076 20.9372 14.0571 20.9372 16.9556 22.1253C17.0726 22.1716 17.1698 22.2572 17.2305 22.3675C17.2911 22.4777 17.3114 22.6057 17.2879 22.7293C17.2643 22.8529 17.1983 22.9644 17.1014 23.0446C17.0044 23.1248 16.8825 23.1686 16.7567 23.1686Z" fill="white"/>
</svg>
