<svg width="32" height="32" viewBox="0 0 32 32" fill="none" xmlns="http://www.w3.org/2000/svg">
<path d="M9.22997 10.8664C10.7837 8.82238 13.2401 7.5 15.9998 7.5C18.2702 7.5 20.4048 8.38412 22.0103 9.98956L22.6732 10.6524L27.9765 5.34919L27.3136 4.68631C24.2916 1.66431 20.2737 0 15.9998 0C11.7261 0 7.70815 1.66431 4.68609 4.68625C4.41178 4.96063 4.14897 5.24338 3.89722 5.53356L9.22997 10.8664Z" fill="white"/>
<path d="M26.4664 28.1026C26.7566 27.8509 27.0394 27.5881 27.3137 27.3138C30.3357 24.2917 32 20.2738 32 16C32 15.0266 31.9119 14.0513 31.738 13.1014L31.5973 12.3328H15.0625V19.8328H23.5907C23.0009 21.0061 22.1572 22.0064 21.1408 22.7771L26.4664 28.1026Z" fill="white"/>
<path d="M19.475 23.763C18.4068 24.2394 17.2283 24.5 15.9998 24.5C13.2401 24.5 10.7837 23.1776 9.22997 21.1336L3.89722 26.4664C4.14897 26.7566 4.41178 27.0394 4.68609 27.3137C7.70815 30.3357 11.7261 32 15.9998 32C19.2446 32 22.3413 31.0398 24.9673 29.2553L19.475 23.763Z" fill="white"/>
<path d="M8.24144 19.4707C7.76525 18.4104 7.5 17.2356 7.5 16C7.5 14.7644 7.76525 13.5896 8.24144 12.5293L2.74469 7.03257C0.960188 9.65851 0 12.7553 0 16C0 19.2448 0.960188 22.3415 2.74469 24.9674L8.24144 19.4707Z" fill="white"/>
</svg>
