<svg width="60" height="60" viewBox="0 0 60 60" fill="none" xmlns="http://www.w3.org/2000/svg">
<circle cx="30" cy="30" r="29.5" fill="#00A39A" stroke="white"/>
<path d="M35.3369 24.374C35.3369 25.7119 34.9316 26.8496 34.1211 27.7871C33.3105 28.7246 32.1729 29.3691 30.708 29.7207V29.8086C32.4365 30.0234 33.7451 30.5508 34.6338 31.3906C35.5225 32.2207 35.9668 33.3438 35.9668 34.7598C35.9668 36.8203 35.2197 38.4268 33.7256 39.5791C32.2314 40.7217 30.0977 41.293 27.3242 41.293C25 41.293 22.9395 40.9072 21.1426 40.1357V36.2832C21.9727 36.7031 22.8857 37.0449 23.8818 37.3086C24.8779 37.5723 25.8643 37.7041 26.8408 37.7041C28.335 37.7041 29.4385 37.4502 30.1514 36.9424C30.8643 36.4346 31.2207 35.6191 31.2207 34.4961C31.2207 33.4902 30.8105 32.7773 29.9902 32.3574C29.1699 31.9375 27.8613 31.7275 26.0645 31.7275H24.4385V28.2559H26.0938C27.7539 28.2559 28.9648 28.041 29.7266 27.6113C30.498 27.1719 30.8838 26.4248 30.8838 25.3701C30.8838 23.749 29.8682 22.9385 27.8369 22.9385C27.1338 22.9385 26.416 23.0557 25.6836 23.29C24.9609 23.5244 24.1553 23.9297 23.2666 24.5059L21.1719 21.3857C23.125 19.9795 25.4541 19.2764 28.1592 19.2764C30.376 19.2764 32.124 19.7256 33.4033 20.624C34.6924 21.5225 35.3369 22.7725 35.3369 24.374Z" fill="white"/>
</svg>
