<svg width="40" height="25" viewBox="0 0 40 25" fill="none" xmlns="http://www.w3.org/2000/svg">
<path d="M39.3696 16.8127C37.1428 15.1405 34.7442 14.0306 34.2612 13.8131C34.2038 13.7906 34.1711 13.7381 34.1711 13.6782V10.5061C34.605 10.2436 34.8915 9.78622 34.8915 9.26877V5.97674C34.8915 4.34196 33.4425 3.01465 31.6578 3.01465H31.273H30.8882C29.1035 3.01465 27.6545 4.34196 27.6545 5.97674V9.26877C27.6545 9.78622 27.9411 10.2362 28.3749 10.5061V13.6782C28.3749 13.7007 28.3668 13.7156 28.3668 13.7307C29.0463 14.1581 29.7585 14.638 30.4544 15.163C31.2648 15.7779 31.7315 16.6777 31.7315 17.6526V20.2997H40V18.0425C40 17.5701 39.7708 17.1202 39.3696 16.8127Z" fill="white"/>
<path d="M11.6251 13.6782V10.5061C12.0589 10.2436 12.3454 9.78622 12.3454 9.26877V5.97674C12.3454 4.34196 10.8964 3.01465 9.11176 3.01465H8.72698H8.34221C6.55753 3.01465 5.10847 4.34196 5.10847 5.97674V9.26877C5.10847 9.78622 5.395 10.2362 5.82891 10.5061V13.6782C5.82891 13.7307 5.79614 13.7832 5.73883 13.8131C5.24764 14.0306 2.84895 15.1405 0.630371 16.8127C0.229226 17.1127 0 17.5701 0 18.0425V20.2997H8.26851V17.6526C8.26851 16.6852 8.73515 15.7779 9.54563 15.163C10.2415 14.638 10.9538 14.1581 11.6332 13.7307C11.6332 13.7156 11.6251 13.7007 11.6251 13.6782Z" fill="white"/>
<path d="M29.513 16.2053C26.9015 14.2406 24.0853 12.9358 23.504 12.6733C23.4385 12.6433 23.3976 12.5833 23.3976 12.5158V8.7888C23.9051 8.47387 24.249 7.94141 24.249 7.34148V3.47953C24.249 1.55979 22.5462 0 20.4504 0H20.0001H19.5498C17.454 0 15.7512 1.55979 15.7512 3.47953V7.34148C15.7512 7.94894 16.0869 8.48136 16.6026 8.7888V12.5158C16.6026 12.5833 16.5617 12.6433 16.4962 12.6733C15.9232 12.9282 13.1069 14.233 10.4872 16.2053C10.0123 16.5577 9.74219 17.0902 9.74219 17.6526V20.2997H13.6145V19.9998C13.6145 19.2274 14.2121 18.5825 15.0062 18.4325C15.0144 18.4175 15.0226 18.4025 15.0308 18.3875C14.8425 18.1325 14.7442 17.8251 14.7442 17.5101C14.7442 17.0827 14.9243 16.6852 15.2518 16.3778L15.7184 15.9503C16.046 15.6504 16.488 15.4854 16.9547 15.4854C17.3067 15.4854 17.6424 15.5829 17.9207 15.7554C17.9371 15.7479 17.9453 15.7479 17.9616 15.7403C18.1172 15.0055 18.8212 14.4505 19.6726 14.4505H20.3358C21.1872 14.4505 21.8913 15.0055 22.0468 15.7403C22.055 15.7479 22.0631 15.7479 22.0795 15.7554C22.3661 15.5754 22.7017 15.4779 23.0619 15.4779C23.5286 15.4779 23.9625 15.6429 24.2899 15.9428L24.7566 16.3703C25.3542 16.9177 25.4279 17.7726 24.9694 18.395C24.9776 18.4025 24.9776 18.41 24.9858 18.425C25.7881 18.5675 26.4021 19.2124 26.4021 19.9923V20.2997H30.2744V17.6526C30.258 17.0902 29.9879 16.5577 29.513 16.2053Z" fill="white"/>
<path d="M24.642 19.595H23.9871C23.8806 19.1001 23.6759 18.6276 23.3485 18.2002L23.8151 17.7727C23.9788 17.6228 23.9788 17.3678 23.8151 17.2178L23.3485 16.7904C23.1847 16.6404 22.9064 16.6404 22.7427 16.7904L22.276 17.2178C21.8094 16.9253 21.2854 16.7304 20.7533 16.6404V16.0405C20.7533 15.823 20.565 15.6505 20.3276 15.6505H19.6645C19.4271 15.6505 19.2388 15.823 19.2388 16.0405V16.6329C18.6985 16.7229 18.1745 16.9179 17.7079 17.2103L17.2494 16.7904C17.0857 16.6404 16.8073 16.6404 16.6436 16.7904L16.177 17.2178C16.0132 17.3678 16.0132 17.6228 16.177 17.7727L16.6272 18.1852C16.308 18.6201 16.0869 19.1001 15.9887 19.595H15.3583C15.1209 19.595 14.9326 19.7674 14.9326 19.9849V20.5923C14.9326 20.8098 15.1209 20.9823 15.3583 20.9823H15.9887C16.0869 21.4772 16.2998 21.9647 16.6272 22.3921L16.1851 22.797C16.0214 22.947 16.0214 23.202 16.1851 23.352L16.6518 23.7794C16.8155 23.9294 17.0939 23.9294 17.2576 23.7794L17.6997 23.3745C18.1745 23.6669 18.6985 23.8619 19.247 23.9594V24.5368C19.247 24.7543 19.4353 24.9267 19.6727 24.9267H20.3358C20.5732 24.9267 20.7615 24.7543 20.7615 24.5368V23.9594C21.3018 23.8619 21.8258 23.6669 22.2924 23.3745L22.7427 23.7869C22.9064 23.9369 23.1847 23.9369 23.3485 23.7869L23.8151 23.3595C23.9788 23.2095 23.9788 22.9545 23.8151 22.8045L23.3567 22.3846C23.6759 21.9496 23.8806 21.4772 23.9871 20.9823H24.6338C24.8712 20.9823 25.0595 20.8098 25.0595 20.5923V19.9849C25.0759 19.775 24.8794 19.595 24.642 19.595ZM21.5638 21.7247C20.7042 22.5121 19.3042 22.5196 18.4365 21.7247C17.5769 20.9373 17.5687 19.655 18.4365 18.8601C19.2961 18.0727 20.696 18.0652 21.5638 18.8601C22.4234 19.655 22.4234 20.9373 21.5638 21.7247Z" fill="white"/>
</svg>
