<svg width="8" height="15" viewBox="0 0 8 15" fill="none" xmlns="http://www.w3.org/2000/svg">
<path d="M1.24883 14.2487C1.01518 14.2492 0.788742 14.1678 0.60883 14.0187C0.507572 13.9348 0.42387 13.8317 0.362518 13.7153C0.301166 13.599 0.26337 13.4717 0.251294 13.3407C0.239218 13.2097 0.2531 13.0776 0.292144 12.952C0.331189 12.8264 0.394628 12.7098 0.47883 12.6087L4.95883 7.24872L0.638831 1.87872C0.555765 1.77643 0.493733 1.65874 0.456301 1.5324C0.41887 1.40606 0.406776 1.27357 0.420715 1.14254C0.434654 1.01151 0.474351 0.884527 0.537525 0.768891C0.600699 0.653254 0.686104 0.551242 0.78883 0.46872C0.892296 0.377683 1.01346 0.309016 1.14472 0.267027C1.27599 0.225038 1.41451 0.210634 1.5516 0.224719C1.6887 0.238804 1.8214 0.281074 1.94138 0.348875C2.06136 0.416677 2.16604 0.508547 2.24883 0.61872L7.07883 6.61872C7.22591 6.79765 7.30632 7.0221 7.30632 7.25372C7.30632 7.48535 7.22591 7.70979 7.07883 7.88872L2.07883 13.8887C1.97851 14.0097 1.85108 14.1054 1.70687 14.1679C1.56266 14.2305 1.40574 14.2582 1.24883 14.2487Z" fill="white"/>
</svg>
