<svg width="16" height="17" viewBox="0 0 16 17" fill="none" xmlns="http://www.w3.org/2000/svg">
<path d="M15.8392 4.34648L13.9392 2.74997C13.8101 2.65958 13.6697 2.58994 13.5224 2.54321C13.3757 2.49142 13.223 2.46264 13.0688 2.45771H7.6L8.2408 6.81976H13.0688C13.2 6.81976 13.364 6.78748 13.5216 6.73426C13.6792 6.68104 13.8312 6.60776 13.9384 6.52837L15.8384 4.93012C15.9464 4.85073 16 4.74517 16 4.63873C16 4.5323 15.9464 4.42674 15.8392 4.34648ZM6.8 0.712891H6C5.89391 0.712891 5.79217 0.758848 5.71716 0.840652C5.64214 0.922456 5.6 1.03341 5.6 1.1491V4.20253H2.9312C2.7984 4.20253 2.6352 4.23481 2.4776 4.2889C2.3192 4.34124 2.168 4.41365 2.0608 4.49479L0.1608 6.09129C0.0528 6.17068 0 6.27712 0 6.38355C0 6.48911 0.0528 6.59468 0.1608 6.67581L2.0608 8.27406C2.168 8.35345 2.3192 8.42673 2.4776 8.47908C2.6352 8.5323 2.7984 8.56458 2.9312 8.56458H5.6V15.9801C5.6 16.0957 5.64214 16.2067 5.71716 16.2885C5.79217 16.3703 5.89391 16.4163 6 16.4163H6.8C6.90609 16.4163 7.00783 16.3703 7.08284 16.2885C7.15786 16.2067 7.2 16.0957 7.2 15.9801V1.1491C7.2 1.03341 7.15786 0.922456 7.08284 0.840652C7.00783 0.758848 6.90609 0.712891 6.8 0.712891Z" fill="#00A39A"/>
</svg>
