<svg width="16" height="17" viewBox="0 0 16 17" fill="none" xmlns="http://www.w3.org/2000/svg">
<path d="M14.4323 11.1983L12.17 10.9448C11.904 10.9142 11.6343 10.9431 11.3813 11.0294C11.1283 11.1157 10.8986 11.2571 10.7093 11.4431L9.07041 13.0516C6.54193 11.7895 4.48677 9.77238 3.20082 7.29075L4.84858 5.67351C5.23157 5.29762 5.41862 4.77311 5.35627 4.23986L5.09797 2.03692C5.04747 1.61048 4.83895 1.21715 4.51211 0.931827C4.18527 0.646504 3.76293 0.489115 3.32551 0.489625H1.78464C0.778165 0.489625 -0.0590758 1.31135 0.0032719 2.29918C0.475333 9.76468 6.55869 15.7266 14.1562 16.1899C15.1627 16.2511 15.9999 15.4294 15.9999 14.4415V12.9292C16.0088 12.0463 15.3319 11.3032 14.4323 11.1983Z" fill="#00A39A"/>
</svg>
