<svg width="16" height="17" viewBox="0 0 16 17" fill="none" xmlns="http://www.w3.org/2000/svg">
<path d="M14.4 4.72876L8 9.63614L1.6 4.72876V2.76581L8 7.67319L14.4 2.76581V4.72876ZM14.4 0.802856H1.6C0.712 0.802856 0 1.67637 0 2.76581V14.5435C0 15.0641 0.168571 15.5634 0.468629 15.9315C0.768687 16.2997 1.17565 16.5065 1.6 16.5065H14.4C14.8243 16.5065 15.2313 16.2997 15.5314 15.9315C15.8314 15.5634 16 15.0641 16 14.5435V2.76581C16 2.2452 15.8314 1.74592 15.5314 1.37779C15.2313 1.00967 14.8243 0.802856 14.4 0.802856Z" fill="#00A39A"/>
</svg>
